# xmcd
# 
# Track frame offsets:
#     150
#     13835
#     36060
#     49812
#     66144
#     88467
#     104613
#     123453
#     136466
#     152228
#     167853
#     183503
#     196614
#     212999
# 
# Disc length: 3056
# 
# Revision: 0
# Processed by: cddbd v1.5.2PL0 Copyright (c) Steve Scherf et al.
# Submitted via: fre:ac v1.0.17
# 
DISCID=d00bee0e
DTITLE=Lee Ann Womack - I Hope You Dance
DYEAR=2000
DGENRE=Country
TTITLE0=The Healing Kind
TTITLE1=I Hope You Dance
TTITLE2=After I Fall
TTITLE3=Stronger Than I Am
TTITLE4=I Know Why The River Runs
TTITLE5=Why They Call It Falling
TTITLE6=Ashes By Now
TTITLE7=Thinkin' With My Hear Again
TTITLE8=I Feel Like I'm Forgetting Something
TTITLE9=Lonely Too
TTITLE10=Does My Ring Burn Your Finger
TTITLE11=Lord, I Hope This Day Is Good
TTITLE12=I Hope You Dance (The Rawling Mix)
TTITLE13=The Man Who Made My Mama Cry
EXTD=
EXTT0=
EXTT1=
EXTT2=
EXTT3=
EXTT4=
EXTT5=
EXTT6=
EXTT7=
EXTT8=
EXTT9=
EXTT10=
EXTT11=
EXTT12=
EXTT13=
PLAYORDER=
